# xmcd
#
# Track frame offsets: 
#        150
#        14420
#        29102
#        44549
#        60295
#        74297
#        88077
#        102141
#        115832
#        134264
#        148703
#        162798
#        174613
#        187541
#
# Disc length: 2700 seconds
#
# Revision: 0
# Processed by: cddbd v1.5.2PL0 Copyright (c) Steve Scherf et al.
# Submitted via: ExactAudioCopyFreeDBPlugin 1.0
#
DISCID=ba0a8a0e
DTITLE=Verschiedene - Immer wieder Stadlzeit
DYEAR=2007
DGENRE=Volksmusik
TTITLE0=Kastelruther Spatzen - Liebe kann ein Wunder sein
TTITLE1=Stefanie Hertel - Tausendmal stärker
TTITLE2=Nockalm Quintett - Die kleine Insel der Zärtlichkeit
TTITLE3=Marc Pircher - Ich geh für dich durch's Feuer
TTITLE4=Marinanne und Michael - Herz gewinnt
TTITLE5=Jan Smit - Hallo Engel
TTITLE6=Klostertaler - Die längste Nacht der Welt
TTITLE7=Alpenrebellen - Feiern ist ein Hammer
TTITLE8=Heino - Blau blüht der Enzian
TTITLE9=Captain Cook und seine singenden Saxophone - Da tanzten wir zu
TTITLE9=Billy Vaughn
TTITLE10=Alpentrio Tirol - Rot sind die Rosen
TTITLE11=Heimatduo Judith and Mel - Komm kuscheln
TTITLE12=Vincent and Fernando - Ich schenk' dir Liebe
TTITLE13=Andy Borg - Adios Amor (Neuaufnahme)
EXTD=
EXTT0=
EXTT1=
EXTT2=
EXTT3=
EXTT4=
EXTT5=
EXTT6=
EXTT7=
EXTT8=
EXTT9=
EXTT10=
EXTT11=
EXTT12=
EXTT13=
PLAYORDER=
